<svg width="20" height="21" viewBox="0 0 20 21" fill="none" xmlns="http://www.w3.org/2000/svg">
<path d="M9.99998 4.66663L9.29287 3.95952L9.99998 3.25241L10.7071 3.95952L9.99998 4.66663ZM11 12.1666C11 12.7189 10.5523 13.1666 9.99998 13.1666C9.4477 13.1666 8.99998 12.7189 8.99998 12.1666L11 12.1666ZM5.83331 8.83329L5.12621 8.12619L9.29287 3.95952L9.99998 4.66663L10.7071 5.37373L6.54042 9.5404L5.83331 8.83329ZM9.99998 4.66663L10.7071 3.95952L14.8738 8.12619L14.1666 8.83329L13.4595 9.5404L9.29287 5.37373L9.99998 4.66663ZM9.99998 4.66663L11 4.66663L11 12.1666L9.99998 12.1666L8.99998 12.1666L8.99998 4.66663L9.99998 4.66663Z" fill="white"/>
<path d="M4.16669 13.8334L4.16669 14.6667C4.16669 15.5872 4.91288 16.3334 5.83335 16.3334L14.1667 16.3334C15.0872 16.3334 15.8334 15.5872 15.8334 14.6667V13.8334" stroke="white" stroke-width="2"/>
</svg>
